<svg width="106" height="22" viewBox="0 0 106 22" fill="none" xmlns="http://www.w3.org/2000/svg">
<path d="M48.6482 21.4743L52.1642 0.564602H61.3098L59.081 13.8619H65.9594L64.6721 21.4743H48.6482ZM79.0821 21.8248C76.2001 21.8248 73.5487 21.046 71.6273 19.6442C70.5514 18.8655 69.7252 17.892 69.1488 16.7628C68.5148 15.5363 68.2074 14.154 68.2074 12.6549C68.2074 10.8248 68.5148 9.1115 69.1488 7.55398C69.7636 6.0354 70.6475 4.7115 71.8003 3.62124C74.1059 1.42124 77.2761 0.253097 80.965 0.253097C84.0391 0.253097 86.7098 0.99292 88.6696 2.39469C90.9752 4.03009 92.1856 6.50265 92.1856 9.55929C92.1856 11.3699 91.8782 13.0832 91.2441 14.6018C90.6293 16.1009 89.7263 17.4248 88.5543 18.515C86.2295 20.6566 82.944 21.8248 79.0821 21.8248ZM80.7152 7.26195C79.6585 7.26195 78.8131 7.76814 78.2367 8.78053C77.6987 9.69558 77.3913 11.0389 77.3913 12.4602C77.3913 14.0761 78.0638 14.7575 79.6393 14.7575C80.7537 14.7575 81.6183 14.2513 82.1947 13.2389C82.7134 12.3434 82.9824 11.0779 82.9824 9.67611C82.9824 8.91681 82.8287 8.33274 82.5405 7.96283C82.1947 7.51504 81.5991 7.28142 80.7729 7.26195H80.7152ZM93.2808 21.4743L96.7968 0.564602H106L102.484 21.4743H93.2808ZM37.8311 21.4743L37.6005 18.9239H31.5291L30.4147 21.4743H21.9224L32.2976 0.564602H43.1339L46.4386 21.4743H37.8311ZM33.7002 13.8619H37.2931L36.5053 7.26195L33.7002 13.8619ZM11.3551 22C7.93511 22 5.22603 21.2407 3.26627 19.7416C1.13359 18.1062 0 15.5947 0 12.4796C0 8.8 1.17201 5.66549 3.38155 3.44602C5.62951 1.18761 8.83814 0 12.7 0C15.851 0 18.3487 0.700885 20.1548 2.06372C21.0962 2.78407 21.8456 3.69912 22.3835 4.78938C22.9215 5.87965 23.2289 7.1646 23.325 8.58584L23.3442 8.99469H14.7366C14.679 8.50797 14.5253 8.13805 14.3139 7.86549C13.9105 7.39823 13.3725 7.18407 12.5271 7.1646H12.4502C11.3743 7.1646 10.5097 7.69027 9.91408 8.70266C9.37611 9.63717 9.04948 11 9.04948 12.4602C9.04948 14.0372 9.74116 14.7381 11.3359 14.7965H11.4896C12.5463 14.7965 13.3725 14.2708 13.9681 13.2389C14.0257 13.1611 14.0642 13.0637 14.1026 12.9664H22.8447L22.7678 13.4336C22.3259 16.2177 20.9233 18.4761 18.733 19.9752C16.7732 21.2991 14.2371 22 11.3551 22Z" fill="#C8C8C8"/>
</svg>
