<svg width="212" height="22" viewBox="0 0 212 22" fill="none" xmlns="http://www.w3.org/2000/svg">
<path d="M21.4398 15.3459C21.4745 17.3409 21.3097 19.063 19.618 20.4612C17.7094 21.9574 13.376 21.9872 10.769 21.9957C4.34047 21.9872 -0.0233029 21.6931 0.0938162 13.8113C-0.0233029 9.04986 1.49491 6.84178 6.60043 6.39419C8.33986 6.22368 10.127 6.15974 12.0703 6.13843C17.1411 6.15974 21.3444 6.25352 21.4398 12.5325H15.714C15.4885 11.8462 15.3887 11.2921 14.9332 10.9979C14.1655 10.3841 12.6776 10.35 11.5498 10.2306H10.769C9.40261 10.35 7.61546 10.3841 6.60477 11.2537C5.79795 11.7823 5.76324 13.0781 5.82397 14.0671C5.76324 17.7629 7.74993 17.797 11.0293 17.9035C12.0183 17.7927 14.5298 17.7288 15.1935 16.8805C15.6229 16.5267 15.6533 16.0066 15.714 15.3459H21.4398ZM23.7822 10.7422C23.8603 6.93982 27.3652 6.35156 30.5491 6.39419C32.5575 6.18958 34.5789 6.15974 36.5352 6.13843C40.4652 6.15974 44.0048 6.80767 44.0829 11.5095V21.74H38.357V19.1823C37.2552 21.9531 33.8848 21.9872 31.3299 21.9957H30.2888C26.2417 21.9872 23.1316 21.6931 23.2617 16.8805C23.1316 13.5683 25.0488 12.1403 28.2067 12.021C29.417 11.9101 30.6098 11.9101 31.8504 12.021H33.412C35.2686 11.9101 37.0904 11.9784 38.357 13.5556V11.7652C38.2486 9.99192 37.4201 9.70206 35.7544 9.46335C34.8011 9.52304 33.8448 9.52304 32.8915 9.46335H31.0696C30.2108 9.56992 29.5167 9.766 29.508 10.7422H23.7822Z" fill="#C8C8C8"/>
<path d="M31.8504 18.4151H32.6312C34.0497 18.4151 35.4074 18.381 36.7955 18.1593C37.7151 18.0229 38.1835 17.6009 38.357 16.6247C38.2486 15.2265 36.7955 15.0646 35.7544 15.0901C34.6279 15.0155 33.4975 15.0155 32.371 15.0901C31.2692 15.0006 28.788 15.0006 28.7273 16.6247C28.788 18.2488 30.4103 18.4108 31.8504 18.4151Z" fill="black"/>
<path d="M51.3703 6.39419V9.71911C52.3593 6.58175 55.0357 6.15974 57.8769 6.13843C63.7979 6.15974 66.5784 7.42577 66.4656 13.8113V21.74H60.7398V13.8113C60.8265 10.8743 59.6987 10.5162 56.8358 10.4864H56.3153C53.2485 10.512 51.2965 10.8402 51.3703 14.5786V21.74H45.6444V6.39419H51.3703ZM74.5338 6.39419V9.71911C75.4708 6.58175 78.1472 6.15974 81.0404 6.13843C86.9137 6.15974 89.6942 7.42577 89.6292 13.8113V21.74H83.9033V13.8113C83.938 10.8743 82.8102 10.5162 79.9994 10.4864H79.2186C76.3643 10.512 74.4124 10.8402 74.5338 14.5786V21.74H68.8123V6.39419H74.5338ZM94.3139 6.90572C96.4568 6.18958 99.6624 6.18958 101.862 6.13843C103.866 6.18958 105.883 6.22368 107.848 6.39419C112.133 6.90572 113.391 8.88788 113.313 13.044V13.5556C113.396 19.0971 113.326 21.2412 106.542 21.74C104.49 21.9915 102.378 21.9915 100.3 22C94.4093 21.9915 91.2645 21.4714 91.1864 14.8386V13.8113C91.2645 11.1301 91.3339 8.07796 94.3139 6.90572Z" fill="#C8C8C8"/>
<path d="M97.9576 17.1361C98.708 17.7925 100.79 17.8266 101.862 17.9034H102.642C103.831 17.8266 105.917 17.7925 106.807 17.1361C107.54 16.6245 107.605 15.5205 107.587 14.5784V13.5554C107.605 12.5963 107.54 11.6201 106.807 10.9978C105.683 10.3498 103.501 10.3498 102.122 10.2305C100.99 10.3498 98.8035 10.4138 97.9576 11.2535C97.0554 11.846 97.0554 13.2101 97.1768 14.0669C97.0554 15.0303 97.1508 16.5947 97.9576 17.1361Z" fill="black"/>
<path d="M120.601 6.39408V9.719C121.555 6.58164 124.236 6.15963 127.107 6.13831C132.998 6.15963 135.778 7.42565 135.696 13.8112V21.7399H129.97V13.8112C130.022 10.8742 128.899 10.5161 126.066 10.4863H125.285C122.449 10.5119 120.497 10.8401 120.601 14.5785V21.7399H114.875V6.39408H120.601ZM159.64 21.7399H153.915V18.4149C153.129 21.5992 149.95 21.9871 147.148 21.9956C144.627 21.9871 140.693 21.9232 138.819 20.2053C137.453 18.9009 137.349 16.7226 137.258 14.8343V13.8112C137.349 11.7182 137.418 8.98581 139.079 7.67289C141.188 6.28751 144.263 6.15963 146.627 6.13831C149.559 6.15963 152.14 6.31735 153.915 8.95171V0H159.64V21.7399Z" fill="#C8C8C8"/>
<path d="M147.408 17.9034C148.011 17.8093 148.626 17.8093 149.23 17.9034C152.301 17.7925 153.923 17.6348 153.915 14.3227C153.919 10.742 152.999 10.3498 149.23 10.2305H148.189C146.874 10.3498 145.087 10.3839 144.285 10.9978C143.339 11.65 143.274 12.8861 143.244 13.8112C143.27 17.1446 143.998 17.8266 147.408 17.9034Z" fill="black"/>
<path d="M161.462 10.7422C161.523 6.93982 165.028 6.35156 168.233 6.39419C170.224 6.18958 172.241 6.15974 174.219 6.13843C178.128 6.15974 181.667 6.80767 181.767 11.5095V21.74H176.041V19.1823C174.922 21.9531 171.547 21.9872 169.014 21.9957H167.973C163.909 21.9872 160.798 21.6931 160.686 16.8805C160.798 13.5683 162.716 12.1403 165.891 12.021C167.08 11.9101 168.272 11.9101 169.535 12.021H171.096C172.935 11.9101 174.757 11.9784 176.041 13.5556V11.7652C175.916 9.99192 175.087 9.70206 173.178 9.46335C172.406 9.54008 171.513 9.50597 170.576 9.46335H168.754C167.873 9.56992 167.184 9.766 167.192 10.7422H161.462Z" fill="#C8C8C8"/>
<path d="M169.53 18.4151H170.311C171.708 18.4151 173.066 18.381 174.475 18.1593C175.382 18.0229 175.842 17.6009 176.037 16.6247C175.911 15.2265 174.454 15.0646 173.434 15.0901C172.308 15.0155 171.177 15.0155 170.051 15.0901C168.927 15.0006 166.451 15.0006 166.407 16.6247C166.451 18.2488 168.069 18.4108 169.53 18.4151Z" fill="black"/>
<path d="M183.585 0H189.306V21.7399H183.585V0ZM211.693 16.6246C211.546 21.791 207.217 21.9871 203.109 21.9956C201.196 21.9871 199.378 21.9232 197.639 21.7356C191.9 21.3988 190.677 18.8028 190.612 13.5512C190.673 8.69168 192.33 6.47933 197.379 6.13405C199.305 6.15537 201.092 6.15537 202.844 6.13405C205.265 6.15537 208.076 6.24914 209.871 7.66863C212.01 9.47176 211.481 12.5921 211.693 15.0858H196.602C196.502 17.4345 197.196 18.3425 199.725 18.4107C200.701 18.4107 201.76 18.4405 202.849 18.4107C203.942 18.4405 205.269 18.3425 205.711 17.8992C205.928 17.4644 205.928 17.0423 205.972 16.6203H211.693V16.6246Z" fill="#C8C8C8"/>
<path d="M202.584 9.46338H200.242C198.645 9.54011 196.463 9.54011 196.338 11.7652C196.463 11.9102 196.463 12.0764 196.602 12.2768H205.972C205.989 9.82997 204.666 9.54011 202.584 9.46338Z" fill="black"/>
<path d="M160.942 2.81349C161.037 1.32154 162.295 0.298487 163.805 0.255859C165.262 0.298487 166.52 1.32154 166.412 2.81349C166.52 4.10936 165.262 5.13241 163.805 5.11536C162.295 5.13241 161.037 4.10936 160.942 2.81349Z" fill="#C8C8C8"/>
<path d="M163.805 4.60346C165.01 4.72708 165.978 3.87027 165.887 2.81312C165.978 1.56414 165.01 0.698811 163.805 0.767014C163.513 0.7474 163.221 0.785034 162.945 0.877715C162.669 0.970396 162.414 1.11626 162.196 1.30678C161.978 1.49731 161.801 1.72866 161.675 1.9873C161.549 2.24594 161.476 2.52669 161.462 2.81312C161.579 3.87027 162.547 4.72708 163.805 4.60346Z" fill="black"/>
<path d="M163.284 4.09245H162.763V1.27905H163.805C164.663 1.32168 165.032 1.56465 165.106 2.04634C165.032 2.61328 164.681 2.83068 164.325 2.81363L165.106 4.09245H164.585L163.805 2.81363H163.284V4.09245Z" fill="#C8C8C8"/>
<path d="M163.805 2.55762C164.182 2.54484 164.538 2.51926 164.585 2.0461C164.538 1.74345 164.186 1.6795 163.805 1.79034H163.284V2.55762H163.805Z" fill="black"/>
</svg>
