<svg width="106" height="21" viewBox="0 0 106 21" fill="none" xmlns="http://www.w3.org/2000/svg">
<path fill-rule="evenodd" clip-rule="evenodd" d="M16.1708 5.56669C15.3946 5.11739 14.5646 4.87263 13.7345 4.85846C13.6801 4.84543 13.6393 4.84543 13.5849 4.84543C12.5776 4.84543 11.5974 5.11739 10.781 5.68906C9.97811 6.24658 9.32485 7.04998 8.84836 8.0024C8.38546 8.95539 8.1543 10.0851 8.1543 11.2687C8.1543 12.6166 8.42625 13.8138 8.97074 14.7668C9.47442 15.7328 10.1821 16.441 11.0257 16.9305C11.8286 17.3668 12.7136 17.6382 13.6116 17.6382L13.5844 17.598H13.734C14.564 17.5708 15.4082 17.339 16.211 16.8903C17.0275 16.441 17.7221 15.7328 18.266 14.7668C18.7697 13.8138 19.0281 12.6166 19.0281 11.2687C19.0281 9.90781 18.7697 8.71006 18.2252 7.75764C17.6813 6.80522 16.9873 6.04318 16.1708 5.56669ZM14.8093 15.1345C14.6456 16.0875 14.292 16.564 13.7476 16.564H13.734C13.1623 16.564 12.8087 16.0869 12.645 15.1345C12.509 14.1815 12.4274 12.8614 12.4274 11.2693C12.4274 10.548 12.4546 9.82679 12.4546 9.22791C12.4546 8.66983 12.5368 8.08456 12.6178 7.59504C12.6722 7.11854 12.8218 6.68284 13.0127 6.37009C13.1623 6.04318 13.4348 5.8936 13.734 5.8936C14.292 5.8936 14.6456 6.41089 14.8093 7.3633C14.9725 8.31629 15.0405 9.63641 15.0405 11.2693C15.0405 12.8619 14.9725 14.1821 14.8093 15.1345ZM104.966 15.2846V0.843689H100.053L100.025 1.91905C101.155 1.91905 101.155 1.91905 101.155 2.95363V15.2846C101.155 16.1152 101.155 16.0744 100.12 16.0744L100.148 17.1226H106.001V16.0744C105.305 16.0744 104.966 16.0603 104.966 15.2846ZM37.4985 15.2846V6.32873H38.4373L38.4509 5.32136L37.4985 5.30776V0.843689L36.5053 0.857284C35.3756 2.6675 33.9325 4.04259 32.0951 5.30776V6.32873C32.9931 6.32873 33.3336 6.34233 33.3336 7.22676V15.2841C33.3336 16.0597 32.8843 16.0739 32.2446 16.0739V17.122H38.5331V16.0739C37.7297 16.0744 37.4985 16.0467 37.4985 15.2846ZM30.3387 15.3526V7.8126C30.3387 6.08397 29.3319 4.846 27.2899 4.846C26.133 4.846 24.963 5.36328 23.8734 6.53383V5.30832H19.0689V6.3293C20.0762 6.3293 20.1034 6.3293 20.1034 7.21429L20.1306 15.2994C20.1306 16.0614 20.0626 16.075 19.0689 16.1022V17.1232H25.2621V16.075C24.3363 16.075 24.0644 16.0614 24.0644 15.2586V8.08456C23.9964 7.55368 24.5273 6.79162 25.1533 6.79162C25.8202 6.79162 26.4599 7.15934 26.4599 7.97578L26.4463 17.122H31.4956V16.0603C30.788 16.0467 30.3387 16.0603 30.3387 15.3526ZM41.8538 4.76384C42.4799 4.76384 43.0244 4.53268 43.3921 4.09698C43.7456 3.68904 43.923 3.19895 43.923 2.73606C43.923 2.24597 43.6918 1.74228 43.3377 1.30715C42.9836 0.898643 42.4391 0.66748 41.8544 0.66748C41.5826 0.667647 41.3139 0.724641 41.0655 0.834802C40.8171 0.944962 40.5944 1.10585 40.4119 1.30715C40.224 1.48862 40.0752 1.70656 39.9745 1.94759C39.8739 2.18863 39.8236 2.44768 39.8266 2.70886V2.73606C39.8266 3.29414 40.0442 3.82445 40.4119 4.17857C40.8008 4.54962 41.3163 4.75886 41.8538 4.76384Z" fill="#C8C8C8"/>
<path fill-rule="evenodd" clip-rule="evenodd" d="M13.7333 18.6053C12.4404 18.9322 11.1746 18.8642 10.0721 18.3197C7.59442 17.0948 5.36266 13.0664 5.36266 10.3984C5.36266 6.16551 8.77913 1.64704 13.1616 2.3275C13.3384 2.3547 13.5293 2.3955 13.7333 2.44989C15.1758 2.83119 16.9724 3.78361 18.1838 4.6822L18.4019 3.838L14.5639 0.0407972L14.3186 0.89803C14.101 0.830041 13.9101 0.762051 13.7333 0.694062C11.8681 0.0271992 12.0319 0 10.1944 0C8.69754 0 7.25447 0.326918 6.02953 0.830039C4.87257 1.29293 3.66123 2.13657 2.80343 3.04876C1.97339 3.92016 1.12919 5.13093 0.694058 6.35588C0.271958 7.59498 0 8.9967 0 10.3984C0 12.3038 0.517286 14.1684 1.36092 15.7203C2.16376 17.2178 3.49749 18.5923 5.04935 19.4365C6.54681 20.2801 8.41142 20.7566 10.3712 20.7566C11.4596 20.7566 12.6307 20.6614 13.7333 20.4031C14.8495 20.1305 15.8976 19.6948 16.7141 19.0008C17.5849 18.2654 17.8302 18.2931 18.3877 17.7758L18.007 16.2784C16.6325 17.4483 15.1628 18.2654 13.7333 18.6053ZM44.3982 15.2846V5.30827H39.2259V6.30205C40.1245 6.32925 40.2605 6.34285 40.2605 7.22728V15.2846C40.2605 16.0602 40.1103 16.0744 39.1579 16.0744V17.1226H45.4464V16.0744C44.6294 16.0744 44.3982 16.0602 44.3982 15.2846ZM63.5486 11.4194L68.816 11.3922C68.816 10.5208 68.6789 9.26866 68.4342 8.5474C68.2296 7.86638 67.8353 7.19951 67.386 6.6692C66.9497 6.17911 66.3645 5.7434 65.7395 5.48504C65.1265 5.21309 64.4194 5.06295 63.6568 5.06295H63.5486C62.5684 5.06295 61.6284 5.19892 60.8262 5.74341C60.0227 6.30148 59.1785 7.29527 58.7304 8.28848C58.4714 8.88735 58.3207 9.56781 58.2533 10.2891C58.2146 10.7691 58.1964 11.2506 58.1989 11.7321C58.1989 12.0313 58.212 12.331 58.2533 12.6302C58.3522 13.2893 58.5449 13.931 58.8256 14.5356C59.2283 15.3912 59.8776 16.1068 60.6902 16.5905C61.4794 17.0676 62.4596 17.339 63.5486 17.3532H63.6568C64.9769 17.3532 66.284 17.0676 67.114 16.4002C67.8897 15.7605 68.7339 14.4404 68.6931 12.7389L67.5911 12.7118C67.4948 14.6036 66.3254 15.6376 65.195 15.9786C64.718 16.1282 64.1327 16.2234 63.5486 16.0461C63.3776 15.9864 63.2133 15.9089 63.0585 15.8149C62.4188 15.203 62.6222 12.9293 62.6222 11.4188H63.5486V11.4194ZM62.6222 7.21368C62.6222 7.21368 62.6222 6.35588 63.5486 6.31508H63.6437C64.4738 6.32868 64.4738 7.21368 64.4738 7.21368V10.4664H63.5486L62.6222 10.48V7.21368ZM80.2071 15.3526V7.81255C80.2071 6.08392 79.2133 4.84595 77.1719 4.84595C76.0025 4.84595 74.8314 5.36323 73.7424 6.53378V5.30827H68.9379V6.32925C69.9447 6.32925 69.9724 6.32925 69.9724 7.21424L70.0002 15.2993C70.0002 16.0614 69.9316 16.075 68.9509 16.1022V17.1231H75.1447V16.075C74.2053 16.075 73.9328 16.0614 73.9328 15.2585V8.08451C73.8654 7.55363 74.3951 6.79157 75.0218 6.79157C75.6892 6.79157 76.3289 7.15929 76.3289 7.97573V17.122H81.3652V16.0602C80.67 16.0466 80.2071 16.0602 80.2071 15.3526ZM57.1649 15.3526V7.81255C57.1649 6.08392 56.1581 4.84595 54.1162 4.84595C52.9728 4.84595 51.8028 5.36323 50.7003 6.53378V5.30827H45.9093V6.32925C46.9167 6.32925 46.9574 6.32925 46.9574 7.21424L46.971 15.2993C46.971 16.0614 46.9031 16.075 45.9093 16.1022L45.9229 17.1231H52.1161V16.075C51.1768 16.075 50.9048 16.0614 50.9048 15.2585V8.08451C50.8368 7.55363 51.3671 6.79157 51.9932 6.79157C52.6601 6.79157 53.3003 7.15929 53.3003 7.97573L53.2867 17.122H58.3219V16.0602H58.2545C57.6006 16.0466 57.1649 16.0466 57.1649 15.3526ZM98.5138 15.271L98.5416 7.77176C98.5416 5.79836 96.4588 4.46464 93.9682 4.46464C93.873 4.46464 93.7778 4.46464 93.6684 4.47823C92.3075 4.60062 90.2112 5.47145 89.218 6.17967C89.3001 6.84654 89.2321 6.90092 89.2321 7.5134L92.1035 6.12528C92.4021 5.97514 93.1103 5.85332 93.6684 5.92131C94.0225 5.9757 94.3081 6.09809 94.4174 6.34341C94.4996 6.54738 94.6622 6.8471 94.6622 7.14626L94.6764 8.52077C94.3573 8.33922 94.0193 8.19312 93.6684 8.08508C92.771 7.82672 91.8724 7.85391 91.2593 8.01708C89.3681 8.53437 88.5369 10.5763 88.5369 13.067C88.5369 14.8087 89.5851 17.5441 91.8854 17.5441C92.6888 17.5441 93.1925 17.3401 93.6679 17.0404C93.899 16.9044 94.1172 16.7413 94.3631 16.5781C94.9483 17.1226 96.1047 17.109 96.6362 17.109L99.6572 17.1362L99.6305 16.0472C98.6906 16.0602 98.5138 16.033 98.5138 15.271ZM93.8316 15.5979C93.7772 15.5979 93.7234 15.5843 93.6679 15.5843C93.0016 15.5435 92.8248 15.1758 92.6752 14.1962C92.6752 13.067 92.6752 11.6375 92.6611 11.0658C92.6344 10.0454 93.0021 9.54175 93.6282 9.54175H93.6679C94.2939 9.56894 94.648 10.0998 94.648 10.7803C94.648 11.6511 94.6758 13.2982 94.6758 14.2642C94.6894 15.1622 94.3761 15.5979 93.8316 15.5979ZM87.2168 15.2846V6.32868H88.1432L88.1698 5.32131L87.2168 5.30771V0.843639L86.2242 0.857233C85.0944 2.66745 83.6513 4.04254 81.8133 5.30771V6.32868C82.7119 6.32868 83.0383 6.34228 83.0383 7.22671V15.284C83.0383 16.0597 82.6032 16.0738 81.9641 16.0738V17.122H88.2661V16.0738C87.4344 16.0744 87.2168 16.0466 87.2168 15.2846Z" fill="#C8C8C8"/>
</svg>
