<svg width="91" height="50" viewBox="0 0 91 50" fill="none" xmlns="http://www.w3.org/2000/svg">
<path d="M91 34.6249H81.6328L76.8895 36.6093L74.1921 34.6249H63.9024L70.3706 39.3362L58.4397 44.328H67.6763L73.7526 41.8002L77.223 44.328H87.3823L80.2637 39.0912L91 34.6249ZM64.5962 36.0928L62.5348 34.6251H44.9736L41.0119 36.3331L36.5786 44.3279H55.801L61.7537 41.8375L64.5962 36.0928ZM50.946 42.7617L50.7292 42.9789H47.4984L47.3367 42.7617L51.0108 35.8303L51.2036 35.637H54.4271L54.6201 35.8303L50.946 42.7617ZM38.2879 38.3564H32.6867L33.965 36.0513H39.5612L42.8689 34.6249H0L23.4142 36.0513L18.8245 44.328H29.3754L31.9073 39.7624H37.5082L38.2879 38.3564ZM77.853 20.6693C78.7489 23.2919 77.8735 25.2165 77.8735 25.2165C77.8735 25.2165 76.2779 24.9645 75.5342 25.4076C74.7898 25.8534 74.1492 28.1175 74.1492 28.1175C74.1492 28.1175 71.7844 27.8572 70.6134 28.5597C69.4439 29.2626 68.7864 31.9149 68.7864 31.9149C68.7864 31.9149 67.764 30.2398 65.6931 30.7733C64.1539 31.1721 62.7302 32.5935 62.1012 33.296H71.4434C72.2169 32.291 72.7563 31.3088 72.7563 31.3088C72.7563 31.3088 73.2587 31.435 73.6117 31.8286C73.9648 32.2211 74.1912 32.9763 74.1912 32.9763C74.1912 32.9763 75.8371 32.0486 76.6395 30.7659C77.4418 29.4846 77.8094 27.8773 77.8094 27.8773C77.8094 27.8773 78.4064 28.0145 78.8975 28.241C79.3871 28.4664 79.7935 28.7556 79.7935 28.7556C79.7935 28.7556 81.0041 27.1185 81.7593 25.0879C82.2602 23.7425 82.4105 22.2376 82.421 20.8759C82.4229 20.6542 82.3922 20.4333 82.3395 20.2143L76.7651 19.0287C77.2725 19.5696 77.6678 20.1255 77.853 20.6693ZM71.6663 14.4859C71.3904 14.8851 71.2183 15.1217 71.2183 15.1217C71.2183 15.1217 73.6955 16.3836 75.6489 17.9928L82.0665 19.4683C80.8599 17.0308 76.9234 14.9608 75.8621 14.437L71.6663 14.4859ZM57.6409 31.6197C55.2855 32.0208 54.4693 32.8261 54.059 33.2957H61.4909C60.9641 32.6009 59.6688 31.2747 57.6409 31.6197ZM46.9186 10.8674C47.2051 10.8164 49.212 10.5896 49.2741 10.5838C49.3363 10.5784 51.3308 10.4181 51.6095 10.4158C54.7758 10.2532 58.5745 10.2532 58.5745 10.2532C58.5745 10.2532 64.7522 6.27925 68.6072 4.50195C72.4615 2.7243 74.6212 2.61594 74.6212 2.61594C74.6212 2.61594 76.5515 4.26985 75.5978 7.33831C74.9242 9.50745 73.0173 12.4951 71.9556 14.0627L75.7356 14.1432C76.307 13.4616 78.4902 10.6904 79.3224 7.1924C80.2836 3.15155 76.8868 0 76.8868 0C76.8868 0 70.976 1.30749 67.0858 2.81955C63.1954 4.33303 58.1792 7.5604 58.1792 7.5604C58.1792 7.5604 52.6957 7.77402 49.6856 8.10829C46.689 8.35576 41.1035 9.20931 41.1035 9.20931C41.1035 9.20931 37.0728 6.85539 33.5913 6.05371C30.1107 5.2525 24.4634 5.06188 24.4634 5.06188C24.4634 5.06188 24.0537 5.40914 23.4675 5.99899L45.5412 11.0728C45.9999 11.0012 46.459 10.9328 46.9186 10.8674ZM62.8232 23.3533C63.0443 23.2657 64.6783 22.4049 65.3665 22.2382C66.0548 22.0716 68.8186 21.5698 69.5679 21.2969C70.315 21.025 70.9985 20.6578 71.7825 20.1792C72.5656 19.7032 72.8595 19.2064 72.9318 18.7981C72.9648 18.6102 72.9298 18.4006 72.8503 18.196L70.0641 17.6035C69.6819 17.8275 69.2266 18.0858 68.6907 18.3378C67.9897 18.667 65.0739 19.2587 61.9043 19.4619C58.8229 19.6589 56.2149 19.7437 54.4967 20.8449C52.7792 21.9477 52.1499 23.1798 51.8616 24.1106C51.5733 25.0419 50.2269 32.1969 50.2269 32.1969L52.5301 31.9753C52.5301 31.9753 53.0413 28.8481 54.0783 26.7058C55.1162 24.5665 56.9472 23.5192 56.9472 23.5192C56.9472 23.5192 57.3418 23.8495 57.7435 23.9108C58.1432 23.9722 58.6161 23.8611 58.6161 23.8611C58.6161 23.8611 59.0892 23.046 59.4606 22.5749C59.8337 22.1037 59.8753 22.0989 60.3352 22.055C60.7962 22.0103 60.7642 23.3516 61.4827 23.4822C62.2004 23.614 62.6024 23.4415 62.8232 23.3533ZM21.3579 12.3976C21.4332 10.4654 22.5415 8.91319 23.3168 8.05416L20.3282 7.41866C19.0904 8.90186 17.7655 10.9144 17.5198 12.9471L21.3622 13.0289C21.3523 12.8186 21.3508 12.608 21.3579 12.3976ZM10.532 33.2957H17.2233C17.2004 32.6685 17.1117 31.3067 16.7731 31.0819C16.3309 30.7913 14.4215 31.3433 14.4215 31.3433C14.4215 31.3433 14.2082 29.5237 16.0768 26.6337C17.9464 23.7441 24.9382 19.5904 24.9382 19.5904C24.9382 19.5904 23.9727 17.3919 23.4806 15.0443L19.3108 15.0925C19.5032 17.8774 20.6578 19.6126 20.6578 19.6126C20.6578 19.6126 12.4339 24.2216 11.2338 27.7493C10.7561 29.1567 10.37 30.6846 10.4043 31.9772C10.4167 32.4191 10.4593 32.8597 10.532 33.2957ZM38.8462 33.2957L40.3011 33.1548C40.3011 33.1548 41.4796 26.0162 41.5164 25.1094C41.5535 24.2025 41.3447 23.0527 39.9632 22.2492C38.5829 21.4467 35.9134 21.8716 32.796 22.2727C29.5902 22.6845 26.7865 22.6461 26.1796 22.4429C25.0129 22.0527 24.3678 21.5144 23.9908 21.5505C23.6137 21.5871 23.099 21.9371 22.6143 22.3527C22.1287 22.7664 21.6981 23.3435 21.6258 23.7532C21.5536 24.1611 21.6785 24.6163 22.3183 24.956C22.9582 25.2962 23.5325 25.5426 24.2082 25.6767C24.8845 25.8122 27.5646 25.7883 28.2163 25.8253C28.8686 25.8625 30.2507 26.432 30.4468 26.4798C30.645 26.5276 30.9977 26.6275 31.7877 26.3507C32.5777 26.0734 33.0276 24.6923 33.4881 24.6476C33.9491 24.6033 33.9912 24.5998 34.2065 25.0129C34.4205 25.4279 34.618 26.1777 34.618 26.1777C34.618 26.1777 35.0662 26.2012 35.5038 26.0585C35.9398 25.9168 36.4671 25.4972 36.4671 25.4972C36.4671 25.4972 37.9862 26.2207 38.2888 28.2315C38.5651 30.0611 38.0997 32.8107 38.0128 33.2961H38.8464V33.2957H38.8462ZM37.062 10.5851C38.6232 11.3998 39.7695 12.0691 39.7695 12.0691C39.7695 12.0691 40.7231 11.8879 42.0726 11.6505L37.062 10.5851ZM51.906 45.5054H53.9596C55.3288 45.5054 56.2441 45.5264 56.7055 45.5679C57.167 45.6097 57.5025 45.7161 57.7123 45.8874C57.922 46.0588 57.922 46.3319 57.712 46.7073C57.5203 47.0498 57.2835 47.2801 57.0015 47.3979C56.7195 47.5157 56.2551 47.5864 55.6078 47.61C56.1507 47.6661 56.4945 47.7413 56.6394 47.8356C56.7842 47.9299 56.8588 48.0166 56.8627 48.0954C56.8669 48.1743 56.7696 48.3913 56.5708 48.7466L55.9213 49.9076H53.2266L54.0451 48.4448C54.1768 48.2092 54.2113 48.0633 54.1487 48.0072C54.086 47.9509 53.8547 47.9228 53.4551 47.9228L52.3444 49.9076H49.4432L51.906 45.5054ZM54.3861 46.2586L53.8386 47.2374C54.1646 47.2374 54.4032 47.2198 54.554 47.1846C54.7051 47.149 54.8344 47.0344 54.9429 46.8405L55.0784 46.5986C55.1565 46.4589 55.1445 46.3676 55.0424 46.3238C54.9401 46.2803 54.7215 46.2586 54.3861 46.2586ZM64.1702 45.5054L63.3665 49.9076H60.4014L60.6882 49.1163H59.6504L59.0332 49.9076H56.0337L59.9768 45.5054H64.1702ZM61.049 48.3358C61.181 47.8372 61.3785 47.221 61.6414 46.4869C60.8742 47.3298 60.3436 47.9461 60.0501 48.3358H61.049ZM71.6714 47.4223H68.77L69.1981 46.6572C69.3226 46.4349 69.3692 46.2962 69.3383 46.2407C69.307 46.1856 69.1859 46.1581 68.9744 46.1581C68.7354 46.1581 68.565 46.1917 68.4633 46.2588C68.3614 46.3258 68.248 46.4708 68.1235 46.6938L66.9795 48.7383C66.8598 48.9521 66.8137 49.0917 66.8418 49.1572C66.8693 49.2224 66.996 49.2549 67.221 49.2549C67.4369 49.2549 67.5966 49.2224 67.6996 49.157C67.8028 49.0914 67.9221 48.9378 68.0574 48.6963L68.367 48.1428H71.2684L71.1723 48.3143C70.9172 48.77 70.6548 49.0932 70.3854 49.2838C70.1154 49.4745 69.6616 49.6413 69.023 49.7848C68.3847 49.9281 67.6562 50 66.8386 50C65.9886 50 65.3218 49.9391 64.8386 49.8179C64.3553 49.6963 64.0839 49.5282 64.0249 49.3136C63.966 49.099 64.0572 48.7757 64.2985 48.3442L65.0183 47.0581C65.1955 46.7409 65.3564 46.5031 65.5004 46.3444C65.6442 46.1859 65.8939 46.0333 66.2495 45.8863C66.6049 45.7396 67.0486 45.6239 67.5805 45.5397C68.1124 45.4554 68.6928 45.4132 69.3224 45.4132C70.177 45.4132 70.8456 45.4784 71.3288 45.6087C71.8117 45.7391 72.086 45.9016 72.152 46.0961C72.2177 46.2907 72.1353 46.5936 71.9056 47.0044L71.6714 47.4223ZM76.333 45.5054L73.8702 49.9076H70.9689L73.4317 45.5054H76.333ZM83.6231 45.5054L81.1602 49.9076H78.617L78.2274 47.9064L77.1077 49.9076H74.6819L77.1449 45.5054H79.5708L80.0882 47.4878L81.1972 45.5054H83.6231ZM90.1858 47.1259H87.2844L87.5081 46.726C87.6492 46.4741 87.7097 46.3163 87.6901 46.2528C87.6703 46.1895 87.5572 46.1576 87.3505 46.1576C87.1712 46.1576 87.0344 46.1849 86.9398 46.2393C86.8448 46.2937 86.7346 46.4332 86.609 46.6581L85.427 48.7708C85.3164 48.9685 85.2759 49.0985 85.3054 49.1609C85.3344 49.2234 85.4459 49.2547 85.6389 49.2547C85.85 49.2547 86.0135 49.2193 86.1289 49.1486C86.2441 49.0779 86.3593 48.9401 86.4736 48.7353L86.7657 48.2131H86.1798L86.5541 47.5444H89.9518L88.6298 49.9071H86.8065L86.7146 49.5917C86.4408 49.728 86.1343 49.8298 85.7954 49.8976C85.4561 49.9654 85.0817 49.9995 84.6727 49.9995C84.1853 49.9995 83.755 49.9527 83.3823 49.8593C83.009 49.7661 82.7508 49.6505 82.607 49.5128C82.4634 49.3751 82.4063 49.2304 82.4361 49.079C82.4655 48.9275 82.5649 48.7006 82.7345 48.3979L83.4661 47.09C83.7014 46.6695 83.9294 46.3639 84.1512 46.1736C84.3721 45.9831 84.7997 45.8086 85.4329 45.65C86.066 45.4915 86.8145 45.4122 87.6784 45.4122C88.5281 45.4122 89.1949 45.481 89.6784 45.6187C90.1617 45.7565 90.4354 45.9201 90.4996 46.1094C90.5634 46.2989 90.4945 46.5738 90.293 46.9346L90.1858 47.1259Z" fill="#C8C8C8"/>
</svg>
