<svg width="42" height="50" viewBox="0 0 42 50" fill="none" xmlns="http://www.w3.org/2000/svg">
<path fill-rule="evenodd" clip-rule="evenodd" d="M31.926 14.2153C32.8823 15.7503 33.5058 17.47 33.7559 19.2626L7.44111 28.5579L2.18817 30.4132C1.81122 29.6485 1.48054 28.8617 1.19793 28.0571C-2.65381 17.0878 3.08974 5.06418 14.0262 1.2013C20.1284 -0.954491 26.5576 -0.112645 31.7182 2.95707L23.7316 5.77841C21.0963 5.30138 18.3825 5.52163 15.8579 6.41744C8.69858 8.9461 4.55814 16.2176 5.70579 23.4772L31.926 14.2153ZM35.1605 27.336C33.4946 31.1168 30.3372 34.2265 26.1429 35.708C19.7977 37.9492 12.9734 35.7966 8.96861 30.8379L3.53555 32.7565C8.73342 40.5777 18.7291 44.1898 27.9741 40.9241C37.2191 37.6584 42.7526 28.5613 41.917 19.1993L12.2815 29.6671C13.7951 31.4019 15.7438 32.699 17.9255 33.4239L35.1605 27.336ZM32.8528 11.0697C34.053 12.5017 34.9846 14.14 35.6023 15.9052C35.885 16.7119 36.1013 17.5405 36.2488 18.3827L41.5029 16.5268C41.3192 15.6939 41.0855 14.8729 40.803 14.0683C39.4886 10.3253 37.2265 7.19002 34.3828 4.83515L10.8082 13.1622C9.57518 15.083 8.86988 17.2964 8.7636 19.5784L32.8528 11.0697ZM8.40366 44.938L7.88567 45.8597H5.94285C5.17412 47.0161 4.73951 48.2233 4.05415 49.4137C3.84571 49.7485 3.38715 49.9831 3.03654 50H0.169433L0.578531 49.1114L2.89872 49.1151C2.89872 49.1151 4.42187 46.1112 5.14083 44.938H8.40366ZM5.65725 50L6.38057 49.3032H8.33926L8.14917 50H9.0663L10.447 44.938H9.63593L4.37987 50H5.65725ZM9.03737 46.7443L8.58161 48.4158H7.30205L9.03737 46.7443ZM17.9713 50L18.6946 49.3032H20.6533L20.4635 50H21.3806L22.7613 44.938H21.9502L16.6945 50H17.9713ZM21.3511 46.7443L20.8953 48.4158H19.6157L21.3511 46.7443ZM13.3614 47.745V44.938H12.4769L9.48815 50H10.5904L12.2566 47.1777V49.9997H12.6101L13.213 50L16.202 44.938H15.0189L13.3614 47.745ZM16.5626 44.938L16.0387 45.8251H17.5111L15.0463 50H16.0742L18.539 45.8251H20.1119L20.6358 44.938H16.5626ZM25.9871 44.938C25.9871 44.938 23.8411 48.5634 23.4728 49.1953C23.3511 49.404 23.3524 50 24.0256 50H25.8521L26.3766 49.1126H24.5501L26.4908 45.8251H28.3172L28.8411 44.938H25.9871ZM27.5336 50L28.3897 48.5516H29.5551L29.8771 50H30.8079L30.5898 49.1301L30.4526 48.5516C30.8275 48.5516 30.9575 48.4951 31.152 48.1693C31.3259 47.8776 33.069 44.938 33.069 44.938H29.4985L26.5048 50H27.5336ZM30.0022 45.8251H31.5157L30.3817 47.7428H28.8682L30.0022 45.8251ZM36.5051 44.938L34.0278 49.1126H32.4742L34.9515 44.938H33.922C33.922 44.938 31.898 48.3241 31.4077 49.1744C31.1374 49.6446 31.3147 50 31.9472 50H34.5299L37.5339 44.938H36.5051ZM41.8072 44.938H38.2155L37.6891 45.8251H39.6276L35.2934 49.9997L39.1152 50L39.6422 49.1126H37.4913L40.886 45.8251L41.8072 44.938Z" fill="#C8C8C8"/>
</svg>
