<svg width="170" height="22" viewBox="0 0 170 22" fill="none" xmlns="http://www.w3.org/2000/svg">
<path fill-rule="evenodd" clip-rule="evenodd" d="M109.947 6.43447V13.2383H100.506V6.36776C100.506 4.48818 101.947 3.7437 102.508 3.7437H107.475C108.662 3.7437 109.947 4.81208 109.947 6.43447ZM152.252 3.65281H155.683C157.053 3.63831 158.173 4.72506 158.173 6.09027V16.0103C158.172 16.3333 158.108 16.653 157.984 16.9512C157.86 17.2494 157.678 17.5202 157.449 17.7481C157.22 17.9761 156.948 18.1567 156.649 18.2798C156.351 18.4028 156.03 18.4658 155.707 18.4652H152.276C151.624 18.4659 150.998 18.2078 150.536 17.7475C150.074 17.2871 149.814 16.6623 149.813 16.0103V6.12508C149.813 5.47529 150.069 4.85168 150.525 4.38905C150.982 3.92642 151.602 3.66195 152.252 3.65281ZM94.2777 6.03613V21.9604H100.266V17.2459H109.871V21.9662H116.03V6.14828C115.957 2.16771 113.681 0.0193414 110.538 0.0193414H99.1702C95.9211 0.0183745 94.2777 2.82904 94.2777 6.03613ZM164.298 16.8273V5.13211C164.299 4.46084 164.167 3.796 163.911 3.1756C163.654 2.55521 163.278 1.99143 162.803 1.5165C162.329 1.04157 161.765 0.664801 161.145 0.40774C160.524 0.15068 159.859 0.0183673 159.188 0.0183677H148.849C146.019 0.0183677 143.724 2.305 143.724 5.12438V16.8611C143.724 19.6805 146.019 21.9662 148.849 21.9662L148.869 21.9468H159.186C160.541 21.9397 161.839 21.3977 162.796 20.4389C163.754 19.4801 164.293 18.182 164.298 16.8273ZM4.77048 13.2509L5.04229 13.2538H13.2352C14.5508 13.2538 15.3729 14.3376 15.5616 15.4157C15.8121 16.8573 15.0276 18.2669 13.1656 18.2669H0.6566V21.9565H13.5486L16.4167 21.9584C16.8045 21.9575 17.6703 21.7457 18.1433 21.5224C20.1697 20.5613 20.9948 18.4458 21.0596 16.4696C21.0771 15.8372 21.08 15.3025 21.0712 14.6702C21.0171 10.2101 19.7596 8.47262 14.9493 8.47262H7.88032C6.10631 8.43201 5.66813 6.97979 5.70875 5.77121C5.78614 3.44107 7.68686 3.73886 9.64466 3.73886H20.4889V0.0328774H4.64957C4.23944 0.0299768 3.45303 0.152762 3.08546 0.287156C0.998054 1.05194 0.0955726 3.443 0.00658191 6.17149C-0.101755 9.51587 1.11219 13.1174 4.77048 13.2509ZM134.022 7.40617V21.9662H140.243V6.05933C140.243 2.30113 138.091 0.0067717 134.262 0.0067717H119.624V21.9662H125.612V3.71952H131.438C133.586 3.71952 134.022 5.68709 134.022 7.40617ZM81.7474 3.59577C83.0648 3.81331 84.5796 4.00281 84.5796 6.64815V21.9662H90.6252V6.92468C90.5575 3.73016 90.7142 0.26105 85.6059 0.0183677H62.1733V21.9536H68.2692V3.63541H73.4326V21.9662H79.3659V3.59577H81.7474ZM50.8444 0.0125697V21.9662H57.2595V0.0125697H50.8444ZM30.8738 0.0280384H24.8359V22H30.8738V17.0941H39.9305V21.9662H45.9683V0H39.9305V12.9163H30.8738V0.0280384ZM167.884 4.39536C167.643 4.39542 167.404 4.34804 167.181 4.2559C166.958 4.16376 166.756 4.02867 166.586 3.85836C166.415 3.68804 166.28 3.48583 166.188 3.26327C166.095 3.0407 166.048 2.80215 166.048 2.56122C166.048 2.3203 166.095 2.08172 166.187 1.8591C166.279 1.63649 166.415 1.43421 166.585 1.26381C166.755 1.0934 166.958 0.958209 167.18 0.865951C167.403 0.773694 167.642 0.726177 167.883 0.726114C168.369 0.725985 168.836 0.919153 169.181 1.26312C169.525 1.60709 169.718 2.07368 169.719 2.56026C169.719 3.04683 169.525 3.51352 169.181 3.85767C168.837 4.20182 168.37 4.39523 167.884 4.39536ZM167.336 2.40749V1.72295H168.003C168.316 1.72295 168.377 1.92309 168.377 2.05845C168.377 2.3108 168.241 2.40749 167.963 2.40749H167.336ZM167.884 4.67575C168.445 4.67575 168.983 4.45287 169.38 4.05614C169.777 3.65941 170 3.12132 170 2.56026C170 1.99919 169.777 1.46111 169.38 1.06437C168.983 0.667642 168.445 0.444756 167.884 0.444756C167.322 0.444756 166.784 0.667642 166.387 1.06437C165.99 1.46111 165.767 1.99919 165.767 2.56026C165.767 3.12132 165.99 3.65941 166.387 4.05614C166.784 4.45287 167.322 4.67575 167.884 4.67575ZM166.811 3.84038H167.336V2.83871H167.887C168.284 2.83871 168.305 2.97407 168.305 3.32311C168.305 3.5861 168.328 3.71856 168.364 3.83941H168.955V3.77173C168.842 3.72919 168.842 3.63637 168.842 3.2622C168.842 2.78457 168.727 2.70625 168.517 2.61343C168.771 2.52835 168.912 2.28566 168.912 2.00431C168.912 1.78289 168.787 1.28012 168.107 1.28012H166.811V3.84038Z" fill="#C8C8C8"/>
</svg>
