<svg width="106" height="13" viewBox="0 0 106 13" fill="none" xmlns="http://www.w3.org/2000/svg">
<path fill-rule="evenodd" clip-rule="evenodd" d="M41.3435 0.0794689H29.4701C25.3051 0.0807415 24.6959 3.40791 24.5869 3.75596C24.4502 4.19246 22.6682 10.8462 22.1066 12.9561C24.5128 12.9561 29.3173 12.9625 29.3173 12.9625C29.3173 12.9625 30.7074 7.75632 30.7209 7.77032C30.8737 7.9243 33.7099 11.3469 34.6022 12.309C35.3185 13.0821 35.815 12.9599 38.5731 12.9663C40.3448 12.9625 42.8587 12.965 42.9431 12.965L38.9148 8.26981H43.3712C43.673 7.01186 44.0888 5.5204 44.4525 4.07474C45.0076 1.8649 43.1855 0.134826 41.3435 0.0794689ZM36.7318 5.97344H31.2051L32.0826 2.87915H37.5751L36.7318 5.97344ZM21.8945 2.86197L22.654 0.140553L7.09078 0.136733C3.81102 0.299623 2.86906 2.26195 2.37971 4.19055C2.20112 4.88856 2.01995 5.54521 1.87102 6.10769C1.75026 6.57786 1.61935 7.04543 1.47837 7.51008L13.4891 7.50499L12.7573 10.2652H0.747246L0 12.9784H14.9701C17.9803 12.9784 19.4819 11.7344 20.2137 9.041C20.7185 7.13849 21.2562 5.2627 21.2562 5.2627H9.5801L10.2229 2.86388L21.8945 2.86197ZM52.4097 0.106829C51.266 0.106829 48.8083 -0.0967863 47.551 3.70696C46.9792 5.75073 45.052 12.9701 45.052 12.9701L48.5658 12.9726C50.1648 12.9726 51.8443 13.0299 52.3782 11.9972C52.8514 11.0835 53.4497 8.62168 53.4497 8.62168H59.211L58.0125 13H65.2445C68.5739 0.689671 68.483 0.997001 68.7338 0.106829H52.4097ZM59.7101 6.01606L54.2047 6.0237L55.0506 2.87406H60.5398L59.7101 6.01606ZM91.4999 12.9675L94.1066 3.12412H89.7708L87.1467 12.9777L80.1526 12.979L82.7657 3.12412H78.4035L75.7678 12.9815H68.5449L72.0219 0.0234721C72.0219 0.0234721 95.3709 -0.0293401 97.8241 0.0234721C99.3393 0.0552866 101.521 1.54358 100.76 4.48006C99.8602 7.94467 99.2548 10.8589 98.6958 12.9675H91.4999ZM102.019 10.8099C102.019 9.79055 102.799 9.02127 103.796 9.02127C104.782 9.02127 105.562 9.79055 105.562 10.8099C105.562 11.8464 104.782 12.608 103.796 12.608C102.799 12.6087 102.019 11.8464 102.019 10.8099ZM103.796 12.9675C104.985 12.9675 106 12.0564 106 10.8099C106 9.57484 104.985 8.66367 103.796 8.66367C102.596 8.66367 101.58 9.57484 101.58 10.8099C101.58 12.0564 102.596 12.9675 103.796 12.9675ZM103.335 10.9804H103.772L104.436 12.0564H104.864L104.148 10.9639C104.518 10.9181 104.8 10.7253 104.8 10.2805C104.8 9.79055 104.507 9.57484 103.912 9.57484H102.954V12.0564H103.336L103.335 10.9804ZM103.335 10.6635V9.89299H103.854C104.12 9.89299 104.404 9.95025 104.404 10.2569C104.404 10.6387 104.113 10.6635 103.792 10.6635H103.335Z" fill="#C8C8C8"/>
</svg>
