<svg width="128" height="65" viewBox="0 0 128 65" fill="none" xmlns="http://www.w3.org/2000/svg">
<path fill-rule="evenodd" clip-rule="evenodd" d="M69.422 43.2006L71.9165 35.2534H47.9726L46.2259 40.8174C37.3659 41.6109 34.6217 48.7326 42.4856 53.2864C43.7787 54.0362 44.8781 54.5196 46.3087 54.9749C40.8477 54.0253 30.7705 51.034 33.5059 43.4058C35.3148 38.3626 45.4946 34.826 49.8835 33.4428C56.769 31.2723 63.4711 30.5019 70.6686 30.5272L70.8355 30.5176L76.4882 38.9257C75.141 43.4283 75.4804 41.8925 78.5673 43.3036C81.1692 44.4925 84.8822 46.9507 85.6335 49.901C86.475 53.2121 83.4167 56.7324 79.7311 58.862C72.3134 63.1478 64.6849 64.7014 56.2025 65L63.0196 43.2013L69.422 43.2006ZM64.3496 58.8613C69.0033 58.2607 74.0949 57.0255 78.1514 54.5755C79.4704 53.7792 80.3564 52.6728 80.8121 51.2413C82.0949 47.2083 78.7302 44.2395 75.1581 43.2006L73.8274 47.4974H68.0092L64.3496 58.8613ZM45.5609 43.2204H53.1265L50.7989 50.4021L45.5609 43.2204ZM95.311 0.145884H108.898L106.513 8.1463L113.704 4.49989C117.09 2.73225 116.204 0.82213 116.318 0.145884H128L127.258 2.75475C119.921 7.17147 118.714 7.92952 116.043 9.52606C116.178 9.68217 117.798 12.8268 125.204 17.9171L124.599 20.3249H111.394L105.887 10.7988L103.376 20.3249H89.0783L89.8199 17.9171L90.3426 17.9014L90.8667 17.8476L91.1711 17.7937L91.4332 17.7133L91.5625 17.6649L91.6931 17.611L91.8238 17.5517L91.9121 17.4876L92.0859 17.3751L92.2165 17.2518L92.3459 17.1229L92.3896 17.0582V16.9941L92.4765 16.8659L92.5203 16.7371L92.6072 16.6089V16.4801L93.1737 14.7854L96.0951 5.38542L96.5747 3.70163V3.58846L96.6171 3.47598V3.36282L96.5733 3.2558V3.17535L96.5309 3.09491L96.4871 3.01993L96.4002 2.95039L96.2251 2.83246L96.1382 2.78406L96.0075 2.74111L95.6162 2.64976L95.2235 2.59114L94.5701 2.53251L95.311 0.145884ZM67.0528 0.0811218L93.9838 0L92.2384 5.07048H88.4474C88.6212 4.30698 89.0098 3.40645 87.7688 3.40713H79.595L78.2533 7.90089L86.3737 7.89612L85.5507 11.475L77.3139 11.4464L75.4886 17.3274L83.8307 17.3199C85.5089 17.3186 85.4303 16.1351 85.6198 15.4459H89.5414L87.9501 20.3664L60.82 20.3242L61.5609 17.8789C62.8725 17.8176 63.7941 18.2089 64.3065 16.7044L64.6999 15.4821L67.793 5.42224L68.3171 3.69617C68.731 2.33073 67.4742 2.54546 66.3125 2.5107L67.0528 0.0811218ZM32.431 0.118615L53.3078 0.100209C62.7931 0.115888 62.8225 3.0322 62.8971 5.26681C62.9902 7.54845 61.9509 11.1506 53.8743 12.3456L57.4922 16.9034C57.9595 17.4454 58.1196 17.6894 60.3691 17.9062L59.6282 20.3249H46.7261L42.4555 11.8445L39.9596 20.3249H26.1982L26.9392 17.9062L27.5488 17.8741L28.2035 17.7992L28.3342 17.7671L28.508 17.7296L28.6394 17.6758L28.8131 17.6219L28.9007 17.5633L28.9876 17.4985L29.1621 17.3588L29.2927 17.2252L29.4234 17.0854L29.5103 16.9457L29.5541 16.8012L29.9899 15.4875L33.564 3.98521L33.6071 3.82433V3.658L33.6502 3.4978V3.28306L33.6071 3.22921L33.564 3.12764L33.5202 3.03083L33.3895 2.94494L33.3458 2.88631L33.2589 2.83246L33.172 2.78951L33.0413 2.74656L32.8237 2.6818L32.5624 2.64431L31.6908 2.60136L32.431 0.118615ZM45.2448 2.60136L42.5862 11.1492L46.7705 11.154C54.321 11.0122 58.357 2.83791 49.2691 2.58841L45.2448 2.60136ZM0 3.88023L1.80416 0.0845311H30.9389L29.7676 3.88023L25.7015 3.93613C25.7015 3.47735 26.2331 2.69817 20.8083 2.80519L16.624 16.2919L16.5802 16.5114L16.5371 16.7364L16.4933 16.9566V17.1713L16.5371 17.2565V17.3424L16.624 17.4174L16.6677 17.4815L16.7984 17.551L16.9291 17.6151L17.0598 17.669L17.1905 17.7119L17.5825 17.7869L18.92 17.8673L18.1791 20.3235H0.990678L1.77542 17.8673L2.63269 17.8564L2.98161 17.8353L3.33054 17.7923L3.67947 17.7283L4.02771 17.6478L4.20217 17.5885L4.37595 17.5142L4.41905 17.4713L4.50663 17.429L4.59352 17.3322L4.72351 17.1979L4.85419 17.0534L4.94176 16.9136L4.98486 16.7691L5.07244 16.5278L5.15933 16.2919L9.34371 2.80519C3.91961 2.74861 3.73967 3.28306 3.49269 3.88023H0Z" fill="#C8C8C8"/>
</svg>
